<svg width="651" height="101" viewBox="0 0 651 101" fill="none" xmlns="http://www.w3.org/2000/svg">
<path d="M0.12 42.808C0.12 40.8453 0.162667 39.3947 0.248 38.456C0.418667 37.432 0.802667 36.28 1.4 35C2.59467 32.7813 5.92267 31.672 11.384 31.672C15.48 31.672 18.3813 32.3973 20.088 33.848C21.5387 35.0427 22.3067 36.8773 22.392 39.352C22.4773 40.2053 22.52 41.4427 22.52 43.064V87.864C22.52 89.8267 22.4347 91.32 22.264 92.344C22.1787 93.2827 21.7947 94.392 21.112 95.672C20.0027 97.8907 16.7173 99 11.256 99C5.88 99 2.59467 97.848 1.4 95.544C0.802667 94.264 0.418667 93.1547 0.248 92.216C0.162667 91.2773 0.12 89.784 0.12 87.736V42.808ZM21.112 19.128C20.5147 20.3227 19.4053 21.176 17.784 21.688C16.1627 22.2 13.9867 22.456 11.256 22.456C8.61067 22.456 6.47733 22.2 4.856 21.688C3.23467 21.176 2.08267 20.28 1.4 19C0.802667 17.72 0.418667 16.6107 0.248 15.672C0.162667 14.648 0.12 13.1547 0.12 11.192C0.12 9.22933 0.162667 7.77866 0.248 6.84C0.418667 5.81599 0.802667 4.70666 1.4 3.51199C2.59467 1.20799 5.92267 0.0559921 11.384 0.0559921C16.76 0.0559921 20.0027 1.20799 21.112 3.51199C21.7947 4.792 22.1787 5.944 22.264 6.96799C22.4347 7.90666 22.52 9.35733 22.52 11.32C22.52 13.2827 22.4347 14.776 22.264 15.8C22.1787 16.7387 21.7947 17.848 21.112 19.128ZM89.321 8.632C90.0037 7.352 91.1557 6.456 92.777 5.94399C94.3983 5.43199 96.4463 5.17599 98.921 5.17599C101.396 5.17599 103.358 5.38933 104.809 5.81599C106.26 6.24266 107.369 6.75466 108.137 7.352C108.905 7.94933 109.502 8.80266 109.929 9.91199C110.356 11.3627 110.569 13.5813 110.569 16.568V87.608C110.569 89.5707 110.484 91.064 110.313 92.088C110.228 93.0267 109.844 94.136 109.161 95.416C107.966 97.72 104.638 98.872 99.177 98.872C93.2037 98.872 89.705 97.2933 88.681 94.136C88.169 92.6853 87.913 90.4667 87.913 87.48V61.496H53.993V87.608C53.993 89.5707 53.9077 91.064 53.737 92.088C53.6517 93.0267 53.2677 94.136 52.585 95.416C51.3903 97.72 48.0623 98.872 42.601 98.872C36.6277 98.872 33.129 97.2933 32.105 94.136C31.593 92.6853 31.337 90.4667 31.337 87.48V16.44C31.337 14.4773 31.3797 13.0267 31.465 12.088C31.6357 11.064 32.0623 9.91199 32.745 8.632C33.9397 6.328 37.2677 5.17599 42.729 5.17599C48.7023 5.17599 52.2437 6.75466 53.353 9.91199C53.7797 11.3627 53.993 13.5813 53.993 16.568V42.68H87.913V16.44C87.913 14.4773 87.9557 13.0267 88.041 12.088C88.2117 11.064 88.6383 9.91199 89.321 8.632ZM163.205 38.712C163.717 33.9333 167.088 31.544 173.317 31.544C176.645 31.544 179.12 31.8 180.741 32.312C182.362 32.824 183.472 33.72 184.069 35C184.752 36.28 185.136 37.432 185.221 38.456C185.392 39.3947 185.477 40.8453 185.477 42.808V87.608C185.477 89.5707 185.392 91.064 185.221 92.088C185.136 93.0267 184.794 94.136 184.197 95.416C183.002 97.6347 180.058 98.744 175.365 98.744C170.757 98.744 167.642 98.1893 166.021 97.08C164.485 95.8853 163.589 94.1787 163.333 91.96C160.176 96.4827 154.885 98.744 147.461 98.744C140.122 98.744 133.296 95.3733 126.981 88.632C120.666 81.8907 117.509 74.0827 117.509 65.208C117.509 56.248 120.666 48.44 126.981 41.784C133.381 35.0427 140.378 31.672 147.973 31.672C150.874 31.672 153.52 32.184 155.909 33.208C158.298 34.232 159.962 35.2133 160.901 36.152C161.84 37.0053 162.608 37.8587 163.205 38.712ZM139.909 65.336C139.909 68.152 141.018 70.712 143.237 73.016C145.456 75.2347 148.144 76.344 151.301 76.344C154.458 76.344 157.061 75.192 159.109 72.888C161.242 70.584 162.309 68.0667 162.309 65.336C162.309 62.52 161.285 59.9173 159.237 57.528C157.274 55.1387 154.586 53.944 151.173 53.944C147.845 53.944 145.114 55.1387 142.981 57.528C140.933 59.9173 139.909 62.52 139.909 65.336ZM260.364 33.08C264.801 35.7253 267.02 38.5413 267.02 41.528C267.02 43.2347 266.167 45.5813 264.46 48.568L237.964 94.008C237.111 95.4587 235.745 96.7813 233.868 97.976C231.991 99.0853 230.113 99.64 228.236 99.64C226.444 99.64 224.695 99.2133 222.988 98.36C221.367 97.4213 220.215 96.4827 219.532 95.544L218.38 94.136L191.756 48.568C190.049 45.752 189.196 43.448 189.196 41.656C189.196 38.584 191.415 35.7253 195.852 33.08C199.095 31.2027 201.655 30.264 203.532 30.264C205.409 30.264 206.86 30.8613 207.884 32.056C208.993 33.1653 210.145 34.872 211.34 37.176L228.108 69.432L244.876 37.176C245.815 35.5547 246.497 34.4027 246.924 33.72C247.436 32.952 248.204 32.2267 249.228 31.544C250.252 30.776 251.617 30.392 253.324 30.392C255.031 30.392 257.377 31.288 260.364 33.08ZM333.762 57.272C333.762 62.4773 332.439 66.36 329.794 68.92C327.234 71.3947 324.375 72.632 321.218 72.632H290.882C290.882 75.0213 292.29 77.0267 295.106 78.648C297.922 80.2693 300.738 81.08 303.554 81.08C308.503 81.08 312.386 80.568 315.202 79.544L316.61 79.032C318.658 78.0933 320.365 77.624 321.73 77.624C324.461 77.624 326.807 79.544 328.77 83.384C329.879 85.688 330.434 87.6507 330.434 89.272C330.434 96.8667 321.346 100.664 303.17 100.664C296.855 100.664 291.223 99.5973 286.274 97.464C281.41 95.2453 277.613 92.344 274.882 88.76C269.506 81.848 266.818 74.1253 266.818 65.592C266.818 54.84 270.274 46.264 277.186 39.864C284.183 33.3787 292.887 30.136 303.298 30.136C315.159 30.136 323.863 34.3173 329.41 42.68C332.311 47.1173 333.762 51.9813 333.762 57.272ZM306.754 60.984C309.997 60.984 311.618 59.6187 311.618 56.888C311.618 54.9253 310.85 53.3467 309.314 52.152C307.863 50.9573 305.73 50.36 302.914 50.36C300.183 50.36 297.453 51.512 294.722 53.816C291.991 56.0347 290.626 58.424 290.626 60.984H306.754ZM346.849 5.048H418.017C420.748 5.048 422.753 5.38933 424.033 6.072C425.313 6.66933 426.166 7.65066 426.593 9.016C427.02 10.3813 427.233 12.1733 427.233 14.392C427.233 16.6107 427.02 18.4027 426.593 19.768C426.166 21.048 425.441 21.944 424.417 22.456C422.881 23.224 420.705 23.608 417.889 23.608H393.441V87.992C393.441 89.9547 393.356 91.4053 393.185 92.344C393.1 93.2827 392.716 94.392 392.033 95.672C391.436 96.8667 390.326 97.72 388.705 98.232C387.084 98.744 384.95 99 382.305 99C379.66 99 377.526 98.744 375.905 98.232C374.369 97.72 373.26 96.8667 372.577 95.672C371.98 94.392 371.596 93.2827 371.425 92.344C371.34 91.32 371.297 89.8267 371.297 87.864V23.608H346.721C343.99 23.608 341.985 23.3093 340.705 22.712C339.425 22.0293 338.572 21.0053 338.145 19.64C337.718 18.2747 337.505 16.4827 337.505 14.264C337.505 12.0453 337.718 10.296 338.145 9.016C338.572 7.65066 339.297 6.712 340.321 6.2C341.857 5.432 344.033 5.048 346.849 5.048ZM415.627 65.336C415.627 55.096 419.211 46.648 426.379 39.992C433.547 33.336 441.739 30.008 450.955 30.008C460.171 30.008 468.32 33.336 475.403 39.992C482.486 46.5627 486.027 54.968 486.027 65.208C486.027 72.2907 484.192 78.6053 480.523 84.152C476.854 89.6133 472.374 93.6667 467.083 96.312C461.878 98.872 456.459 100.152 450.827 100.152C445.195 100.152 439.734 98.7867 434.443 96.056C429.152 93.24 424.672 89.144 421.003 83.768C417.419 78.3067 415.627 72.1627 415.627 65.336ZM442.379 74.552C445.11 76.6 447.883 77.624 450.699 77.624C453.515 77.624 456.331 76.5573 459.147 74.424C461.963 72.2907 463.371 69.1333 463.371 64.952C463.371 60.7707 462.048 57.656 459.403 55.608C456.758 53.56 453.899 52.536 450.827 52.536C447.755 52.536 444.896 53.6027 442.251 55.736C439.606 57.8693 438.283 61.0267 438.283 65.208C438.283 69.304 439.648 72.4187 442.379 74.552ZM504.281 5.048L527.961 5.17599C540.334 5.17599 551.214 9.656 560.601 18.616C569.988 27.4907 574.681 38.456 574.681 51.512C574.681 64.4827 570.073 75.6187 560.857 84.92C551.726 94.2213 540.633 98.872 527.577 98.872H504.153C498.948 98.872 495.705 97.8053 494.425 95.672C493.401 93.88 492.889 91.1493 492.889 87.48V16.312C492.889 14.264 492.932 12.7707 493.017 11.832C493.188 10.8933 493.614 9.784 494.297 8.504C495.492 6.2 498.82 5.048 504.281 5.048ZM527.961 76.216C534.105 76.216 539.652 73.9547 544.601 69.432C549.55 64.824 552.025 59.064 552.025 52.152C552.025 45.24 549.593 39.48 544.729 34.872C539.95 30.1787 534.318 27.832 527.833 27.832H515.545V76.216H527.961ZM579.686 65.336C579.686 55.096 583.27 46.648 590.438 39.992C597.606 33.336 605.798 30.008 615.014 30.008C624.23 30.008 632.379 33.336 639.462 39.992C646.545 46.5627 650.086 54.968 650.086 65.208C650.086 72.2907 648.251 78.6053 644.582 84.152C640.913 89.6133 636.433 93.6667 631.142 96.312C625.937 98.872 620.518 100.152 614.886 100.152C609.254 100.152 603.793 98.7867 598.502 96.056C593.211 93.24 588.731 89.144 585.062 83.768C581.478 78.3067 579.686 72.1627 579.686 65.336ZM606.438 74.552C609.169 76.6 611.942 77.624 614.758 77.624C617.574 77.624 620.39 76.5573 623.206 74.424C626.022 72.2907 627.43 69.1333 627.43 64.952C627.43 60.7707 626.107 57.656 623.462 55.608C620.817 53.56 617.958 52.536 614.886 52.536C611.814 52.536 608.955 53.6027 606.31 55.736C603.665 57.8693 602.342 61.0267 602.342 65.208C602.342 69.304 603.707 72.4187 606.438 74.552Z" fill="white"/>
</svg>
